<svg xmlns="http://www.w3.org/2000/svg" viewBox="0 0 272 92">
  <path fill="#4285F4" d="M36.4,45.8v10.3h16.2c-0.6,3.4-3.6,10-16.2,10c-10.9,0-19.8-9.1-19.8-20.2s8.9-20.2,19.8-20.2c6.2,0,10.4,2.6,12.8,4.9l8.1-7.8C52.2,8.4,45.2,5.5,36.4,5.5c-20.6,0-37.4,16.7-37.4,37.3s16.7,37.3,37.4,37.3c11.3,0,18.8-4,22.7-8.1c4.1-4,6.6-9.6,6.6-17.7c0-1.7-0.2-3.1-0.4-4.5H36.4z"/>
  <path fill="#EA4335" d="M84.3,33.5c-11.4,0-20.6,8.8-20.6,20.4s9.2,20.4,20.6,20.4s20.6-8.8,20.6-20.4S95.7,33.5,84.3,33.5z M84.3,65.3 c-6,0-11-5-11-11.4s5-11.4,11-11.4s11,5,11,11.4S90.3,65.3,84.3,65.3z"/>
  <path fill="#FBBC05" d="M130,33.5c-11.4,0-20.6,8.8-20.6,20.4s9.2,20.4,20.6,20.4s20.6-8.8,20.6-20.4S141.4,33.5,130,33.5z M130,65.3 c-6,0-11-5-11-11.4s5-11.4,11-11.4s11,5,11,11.4S136,65.3,130,65.3z"/>
  <path fill="#4285F4" d="M174.5,33.5c-11,0-20.3,9.4-20.3,20.4s9.3,20.4,20.3,20.4c6.2,0,9.7-2.5,12-4.9l0.2,0.2v3.7 c0,7.8-4.2,12-11,12c-5.8,0-9.4-4.2-10.7-7.7L156,66.3c2.6,6.2,9,13.4,19.5,13.4c11.3,0,20.9-6.6,20.9-21.2V34.4h-9.2v4 l-0.2-0.2C184.8,36,180.7,33.5,174.5,33.5z M175.4,65.3c-6,0-10.6-5.1-10.6-11.4s4.6-11.4,10.6-11.4s10.6,5.1,10.6,11.4 S181.4,65.3,175.4,65.3z"/>
  <path fill="#34A853" d="M205.2,5.5h9.3v72.8h-9.3V5.5z"/>
  <path fill="#EA4335" d="M245.2,33.5c-10,0-18.7,9.3-18.7,20.4c0,11.4,9.1,20.4,19.6,20.4c8.5,0,13.4-5.2,16.4-9.7l-7.7-5.1 c-2.3,3.4-5.5,5.8-9.9,5.8c-4.4,0-7.3-2-9.2-5.7l25.3-10.5l-0.9-2.2C256.4,41.4,251.6,33.5,245.2,33.5z M246.1,42.1 c3.6,0,6.5,1.9,7.6,4.5L235.8,54C235.8,47.8,240.2,42.1,246.1,42.1z"/>
</svg>
